<svg version="1.1" id="Layer_1" xmlns="http://www.w3.org/2000/svg" xmlns:xlink="http://www.w3.org/1999/xlink" x="0px" y="0px"
	 width="100%" viewBox="0 0 1024 672" enable-background="new 0 0 1024 672" xml:space="preserve">
<path fill="#000000" opacity="1.000000" stroke="none" 
	d="
M555.998474,253.014221 
	C573.059875,273.525909 590.054077,293.634979 606.684875,314.040283 
	C620.265686,330.703308 619.633240,354.181213 605.578247,371.134857 
	C589.310547,390.757599 572.979919,410.328217 556.688843,429.931641 
	C534.224304,456.963654 511.752533,483.989685 489.318634,511.047089 
	C467.226013,537.692810 427.053925,532.611938 413.434570,500.973938 
	C406.425262,484.691132 408.965637,468.877716 420.369385,455.091797 
	C450.103577,419.146301 480.019501,383.351135 509.858948,347.492676 
	C510.604370,346.596863 511.191620,345.538483 512.044983,344.769409 
	C514.507385,342.550385 513.813049,340.880219 511.851471,338.531738 
	C481.622650,302.339966 451.514923,266.047089 421.357574,229.795563 
	C403.582703,208.428741 406.639313,179.634933 428.401031,163.812515 
	C446.506958,150.648132 472.215332,153.445480 487.301727,170.575851 
	C496.217285,180.699356 504.636780,191.260056 513.268677,201.633026 
	C527.441711,218.664810 541.606079,235.703796 555.998474,253.014221 
z"/>
</svg>